<svg width="223" height="83" viewBox="0 0 223 83" fill="none" xmlns="http://www.w3.org/2000/svg">
<rect x="2" y="1.72925" width="219" height="79" rx="39.5" fill="#4527A0"/>
<rect x="2" y="1.72925" width="219" height="79" rx="39.5" stroke="#4527A0" stroke-width="3"/>
<path d="M50.5 22.4792C40.1595 22.4792 31.75 30.8887 31.75 41.2292C31.75 51.5698 40.1595 59.9792 50.5 59.9792C60.8405 59.9792 69.25 51.5698 69.25 41.2292C69.25 30.8887 60.8405 22.4792 50.5 22.4792ZM50.5 24.9792C59.4894 24.9792 66.7598 32.2398 66.7598 41.2292C66.7598 50.2187 59.4894 57.489 50.5 57.489C41.5106 57.489 34.25 50.2187 34.25 41.2292C34.25 32.2398 41.5106 24.9792 50.5 24.9792ZM50.4829 31.2366C50.1527 31.2424 49.8382 31.3787 49.6081 31.6156C49.378 31.8526 49.251 32.171 49.2549 32.5012V33.5535C47.2366 33.9321 45.5098 35.2318 45.5098 37.4841C45.5098 39.0466 46.2142 40.3104 47.1602 41.0461C48.1062 41.7819 49.1743 42.1082 50.1118 42.4207C51.0493 42.7332 51.8586 43.0319 52.3188 43.3899C52.7791 43.7479 53 44.0491 53 44.9866C53 47.0699 48.0098 47.0699 48.0098 44.9866C48.0135 44.8201 47.9839 44.6545 47.9227 44.4996C47.8615 44.3448 47.7701 44.2036 47.6536 44.0846C47.5372 43.9655 47.3981 43.871 47.2446 43.8064C47.0911 43.7418 46.9263 43.7085 46.7598 43.7085C46.5932 43.7085 46.4284 43.7418 46.2749 43.8064C46.1214 43.871 45.9824 43.9655 45.8659 44.0846C45.7495 44.2036 45.658 44.3448 45.5968 44.4996C45.5357 44.6545 45.5061 44.8201 45.5098 44.9866C45.5098 47.2372 47.2381 48.5393 49.2549 48.9197V49.967C49.2512 50.1335 49.2808 50.2991 49.3419 50.454C49.4031 50.6088 49.4946 50.75 49.611 50.869C49.7275 50.9881 49.8665 51.0827 50.02 51.1472C50.1735 51.2118 50.3384 51.2451 50.5049 51.2451C50.6714 51.2451 50.8363 51.2118 50.9897 51.1472C51.1432 51.0827 51.2823 50.9881 51.3987 50.869C51.5152 50.75 51.6067 50.6088 51.6678 50.454C51.729 50.2991 51.7586 50.1335 51.7549 49.967V48.9197C53.772 48.5395 55.5024 47.2375 55.5024 44.9866C55.5024 43.4241 54.7956 42.1603 53.8496 41.4246C52.9036 40.6888 51.8354 40.3601 50.8979 40.0476C49.9604 39.7351 49.1512 39.4388 48.6909 39.0808C48.2307 38.7228 48.0098 38.4216 48.0098 37.4841C48.0098 35.4008 53 35.4008 53 37.4841C53 37.816 53.1318 38.1342 53.3665 38.3689C53.6011 38.6035 53.9194 38.7353 54.2512 38.7353C54.5831 38.7353 54.9013 38.6035 55.136 38.3689C55.3706 38.1342 55.5024 37.816 55.5024 37.4841C55.5024 35.2351 53.7714 33.9368 51.7549 33.5559V32.5012C51.7568 32.334 51.7252 32.168 51.6619 32.0132C51.5986 31.8584 51.5049 31.7179 51.3863 31.6C51.2677 31.4821 51.1266 31.3891 50.9714 31.3267C50.8163 31.2643 50.6501 31.2336 50.4829 31.2366Z" fill="#FAFAFA"/>
<path d="M81.76 33.6012H107.24V36.6532H81.76V33.6012ZM85.064 43.1492H92.344V45.6132H85.064V43.1492ZM85.064 47.4332H92.344V49.9252H85.064V47.4332ZM96.796 38.8652H99.904V50.3452H96.796V38.8652ZM91.168 38.5852H94.416V52.4452C94.416 53.8732 94.136 54.6572 93.184 55.1332C92.26 55.6372 90.972 55.6652 89.236 55.6652C89.068 54.8252 88.592 53.5932 88.172 52.8092C89.208 52.8652 90.356 52.8652 90.692 52.8372C91.056 52.8372 91.168 52.7252 91.168 52.3892V38.5852ZM102.424 38.1092H105.728V52.0812C105.728 53.7052 105.42 54.5732 104.3 55.0772C103.236 55.5812 101.724 55.6932 99.652 55.6652C99.484 54.7692 98.952 53.3412 98.476 52.4732C99.904 52.5572 101.36 52.5572 101.836 52.5292C102.284 52.5292 102.424 52.4172 102.424 52.0252V38.1092ZM85.624 30.5492L88.816 29.4292C89.824 30.5212 90.944 32.0052 91.42 33.0692L88.032 34.2732C87.64 33.2652 86.604 31.6692 85.624 30.5492ZM99.988 29.3732L103.656 30.4652C102.508 32.2572 101.276 34.0492 100.296 35.2812L97.272 34.2452C98.224 32.9292 99.372 30.8852 99.988 29.3732ZM83.524 38.5852H86.548V45.0812C86.548 48.3572 86.184 52.9212 84.112 55.7492C83.608 55.2172 82.292 54.2372 81.592 53.8732C83.356 51.3532 83.524 47.7692 83.524 45.0252V38.5852ZM85.484 38.5852H92.764V41.2172H85.484V38.5852ZM115.612 35.6732L118.552 36.8772C116.62 40.3212 113.512 44.0452 110.712 46.3692C110.46 45.6132 109.62 43.7092 109.116 42.8972C111.468 41.1332 114.044 38.3892 115.612 35.6732ZM114.856 29.4852L118.048 30.7452C116.312 33.3492 113.652 36.0932 111.16 37.8292C110.796 37.0732 109.984 35.6732 109.48 35.0012C111.524 33.6572 113.792 31.3612 114.856 29.4852ZM112.84 42.0012L116.116 38.6972L116.284 38.8092V55.7492H112.84V42.0012ZM119.504 42.8132H133.896V46.0332H119.504V42.8132ZM117.684 51.7452H135.492V54.9372H117.684V51.7452ZM118.552 34.6652H134.764V37.8572H118.552V34.6652ZM125.104 36.5132H128.604V53.0892H125.104V36.5132ZM123.788 30.3812L126.868 29.3172C127.708 30.6892 128.688 32.4812 129.052 33.7132L125.776 34.8892C125.468 33.7132 124.6 31.8092 123.788 30.3812ZM152.292 33.0412V35.5892H158.564V33.0412H152.292ZM149.156 30.3812H161.84V38.2772H149.156V30.3812ZM159.264 39.7332H162.68V52.3052C162.68 53.8732 162.372 54.7132 161.364 55.2452C160.328 55.7212 158.9 55.7772 156.94 55.7772C156.828 54.8532 156.408 53.5372 155.988 52.6972C157.08 52.7532 158.396 52.7252 158.76 52.7252C159.124 52.7252 159.264 52.6132 159.264 52.2772V39.7332ZM137.34 43.6812C139.916 43.1492 143.752 42.2252 147.336 41.3012L147.756 44.3812C144.48 45.2772 140.952 46.2012 138.208 46.9012L137.34 43.6812ZM137.676 34.7772H147.7V37.9132H137.676V34.7772ZM141.148 29.4572H144.424V52.1372C144.424 53.7332 144.144 54.5732 143.192 55.0772C142.24 55.5812 140.896 55.6932 138.908 55.6652C138.796 54.8252 138.376 53.4812 137.984 52.6412C139.076 52.6692 140.252 52.6692 140.616 52.6692C141.008 52.6412 141.148 52.5292 141.148 52.1372V29.4572ZM149.968 39.7332H161.028V42.5892H149.968V39.7332ZM148.428 39.7332H151.76V44.4092C151.76 47.8812 151.312 52.8372 148.82 56.0012C148.232 55.4412 146.748 54.4612 145.964 54.0972C148.204 51.2692 148.428 47.2372 148.428 44.3532V39.7332ZM150.948 49.1972C153.272 48.7772 156.772 48.0772 160.16 47.3492L160.468 50.0372C157.556 50.8492 154.504 51.6892 152.04 52.3332L150.948 49.1972ZM151.648 45.7252L152.936 43.4572C154.896 43.7652 157.472 44.4932 158.872 45.1652L157.528 47.6572C156.212 46.9852 153.636 46.1452 151.648 45.7252ZM182.868 39.3972H186.032V40.7972C186.032 44.8292 185.528 51.1572 180.348 55.8612C179.788 55.1052 178.612 54.0692 177.8 53.5652C182.448 49.5332 182.868 44.1852 182.868 40.7132V39.3972ZM185.808 42.7852C186.704 47.2092 188.58 51.1012 191.94 52.8652C191.212 53.5092 190.176 54.7972 189.672 55.6932C185.976 53.3972 184.184 48.8052 183.12 43.2612L185.808 42.7852ZM165.704 31.6972H178.836V34.4412H165.704V31.6972ZM165.312 43.9332H179.144V46.6772H165.312V43.9332ZM166.376 35.8692H178.192V38.5852H166.376V35.8692ZM166.544 39.9012H178.052V42.6172H166.544V39.9012ZM170.716 29.6252H173.88V37.6332H170.716V29.6252ZM167.104 47.1812L169.848 47.8532C169.288 49.9252 168.364 52.3052 167.608 53.8172C166.964 53.4252 165.704 52.9212 165.004 52.6692C165.844 51.2412 166.628 49.0852 167.104 47.1812ZM174.664 48.1052L177.156 47.1532C177.856 48.4972 178.668 50.3452 179.004 51.4652L176.344 52.5852C176.064 51.4372 175.336 49.5332 174.664 48.1052ZM181.356 34.5252H189.252V37.5772H181.356V34.5252ZM180.796 29.4852L184.072 29.9612C183.4 35.0572 182.112 39.9572 180.152 43.0932C179.564 42.5332 178.192 41.5252 177.436 41.0492C179.284 38.3892 180.32 33.9652 180.796 29.4852ZM188.384 34.5252H188.832L189.364 34.4132L191.66 35.0292C191.128 37.8012 190.344 40.9652 189.616 43.0372L186.9 42.2252C187.432 40.3772 188.048 37.3812 188.384 35.0292V34.5252ZM170.772 45.0532H173.908V55.7212H170.772V45.0532Z" fill="#FAFAFA"/>
</svg>
