<svg width="141" height="61" viewBox="0 0 141 61" fill="none" xmlns="http://www.w3.org/2000/svg">
<rect x="2" y="2.36353" width="137" height="57" rx="28.5" fill="#4527A0"/>
<rect x="2" y="2.36353" width="137" height="57" rx="28.5" stroke="#4527A0" stroke-width="3"/>
<path d="M37.3 30.6435H49.32V32.8435H37.3V30.6435ZM37.84 26.2835H48.82V28.4635H37.84V26.2835ZM42.04 27.4435H44.4V30.1235C44.4 32.6635 43.58 36.2035 38.64 38.6635C38.32 38.1635 37.56 37.4035 37 36.9835C41.72 34.9635 42.04 32.0435 42.04 30.1035V27.4435ZM45.56 22.8635L47.98 23.5835C47.22 25.0035 46.36 26.5235 45.68 27.5035L43.76 26.8435C44.4 25.7635 45.16 24.0835 45.56 22.8635ZM38.66 23.6235L40.7 22.8635C41.28 23.7835 42.1 25.0635 42.5 25.8435L40.36 26.7435C40 25.9435 39.24 24.6035 38.66 23.6235ZM41.98 33.4635L43.54 32.0235C45.36 33.5235 48.08 35.6835 49.42 36.9835L47.74 38.6835C46.5 37.3235 43.86 35.0635 41.98 33.4635ZM31.82 23.9435L33.62 22.8835C34.52 23.8435 35.58 25.1035 36.12 25.9235L34.24 27.2035C33.74 26.3435 32.66 24.9435 31.82 23.9435ZM31.34 27.5435H35.56V29.4635H31.34V27.5435ZM35.4 36.2435C36.46 38.9435 38.82 39.2635 42.44 39.2835C44.58 39.2835 47.88 39.1635 50.16 38.9435C49.82 39.4235 49.52 40.5035 49.4 41.1435C47.3 41.2835 44.74 41.3235 42.4 41.3235C37.76 41.3235 35.28 40.7235 33.8 36.8835L35.4 36.2435ZM34.6 32.4035H35.32L35.7 32.3635L36.7 32.7635C36.12 37.1435 34.6 40.1435 32.48 41.7235C32.16 41.2635 31.38 40.4435 30.92 40.1235C32.9 38.7835 34.16 36.2635 34.6 32.7635V32.4035ZM31.72 34.5835V32.8635L32.58 32.4035H35.52V34.2635H32.94C32.46 34.2635 31.88 34.4035 31.72 34.5835ZM31.72 34.5835C31.58 34.0835 31.16 33.0635 30.94 32.6235C31.28 32.5435 31.6 32.4035 31.98 31.9835C32.56 31.4235 34.34 28.8635 35.02 27.7635V27.7035L35.62 27.4435L37.08 28.1035C36.16 29.4835 34.44 31.9635 33.32 33.2635C33.32 33.2635 31.72 34.0435 31.72 34.5835ZM59.08 22.9035H61.76V39.4035H59.08V22.9035ZM66 32.9235H68.68V41.6435H66V32.9235ZM53.24 24.5835H55.78V29.5435H65.22V24.5635H67.88V31.8835H53.24V24.5835ZM52.18 32.9435H54.88V38.1635H67.24V40.5635H52.18V32.9435ZM76.2 36.8635H78.54V38.9435C78.54 39.4635 78.7 39.5435 79.62 39.5435C80.04 39.5435 81.82 39.5435 82.38 39.5435C83.12 39.5435 83.24 39.3235 83.34 37.8835C83.82 38.2035 84.76 38.5235 85.36 38.6435C85.12 40.9035 84.48 41.4635 82.6 41.4635C82.06 41.4635 79.86 41.4635 79.36 41.4635C76.82 41.4635 76.2 40.8835 76.2 38.9635V36.8635ZM78.38 36.7835L79.74 35.4435C80.84 35.8835 82.26 36.6835 83 37.2835L81.52 38.7435C80.88 38.1635 79.48 37.3035 78.38 36.7835ZM85.06 37.2235L86.98 36.3835C87.94 37.4635 89 38.9235 89.42 39.9635L87.36 40.9035C87 39.8835 86 38.3635 85.06 37.2235ZM73.76 36.5635L75.76 37.4435C75.14 38.7235 74.3 40.2035 73.26 41.1635L71.28 40.0035C72.3 39.1235 73.22 37.7635 73.76 36.5635ZM72.8 24.0035H88.14V25.8635H72.8V24.0035ZM71.84 27.2435H89.22V29.1035H71.84V27.2435ZM75.62 26.1635L77.82 25.7235C78.12 26.2635 78.4 27.0035 78.5 27.5035L76.22 28.0235C76.14 27.5235 75.88 26.7435 75.62 26.1635ZM83.14 25.6835L85.62 26.1435C85.18 26.9235 84.82 27.5635 84.5 28.0635L82.4 27.5835C82.66 27.0235 82.98 26.2435 83.14 25.6835ZM76.36 33.6035V34.4635H84.66V33.6035H76.36ZM76.36 31.3435V32.2035H84.66V31.3435H76.36ZM74.1 29.8435H87.04V35.9635H74.1V29.8435ZM78.96 23.0835L81.32 22.6435C81.68 23.3035 82.02 24.2235 82.14 24.8435L79.66 25.3435C79.58 24.7435 79.28 23.7835 78.96 23.0835ZM96.3 28.7835V30.0235H104.7V28.7835H96.3ZM96.3 31.9835V33.2235H104.7V31.9835H96.3ZM96.3 25.6035V26.8435H104.7V25.6035H96.3ZM93.98 23.5035H107.14V35.3235H93.98V23.5035ZM101.42 33.7035H103.86V38.5035C103.86 39.1435 104 39.2435 104.72 39.2435C105.06 39.2435 106.4 39.2435 106.82 39.2435C107.52 39.2435 107.64 38.9035 107.74 36.5435C108.22 36.9435 109.28 37.3435 109.94 37.5035C109.68 40.6835 109.04 41.5035 107.04 41.5035C106.54 41.5035 104.86 41.5035 104.4 41.5035C102 41.5035 101.42 40.7835 101.42 38.5035V33.7035ZM96.52 34.5235H99.1C98.76 38.1635 97.82 40.5235 92.42 41.7435C92.22 41.1035 91.58 40.1235 91.08 39.6035C95.72 38.7435 96.26 37.2035 96.52 34.5235Z" fill="#FAFAFA"/>
</svg>
