<svg width="177" height="83" viewBox="0 0 177 83" fill="none" xmlns="http://www.w3.org/2000/svg">
<rect x="2" y="2" width="173" height="79" rx="39.5" fill="#FAFAFA"/>
<rect x="2" y="2" width="173" height="79" rx="39.5" stroke="#4527A0" stroke-width="3"/>
<path d="M73.492 36.56H83.572V39.388H73.492V36.56ZM71.924 31.8H75.004V36.728C75.004 40.956 74.5 47.284 71.644 51.4C71.084 50.896 69.712 50.112 68.928 49.832C71.672 45.968 71.924 40.48 71.924 36.7V31.8ZM82.76 36.56H83.376L83.936 36.476L86.008 37.12C84.524 44.792 80.632 49.3 75.004 51.708C74.612 50.868 73.8 49.636 73.156 48.992C78.028 47.256 81.612 42.972 82.76 37.092V36.56ZM75.088 42.356L77.356 40.368C80.744 42.86 85.252 46.528 87.352 49.076L84.832 51.4C82.9 48.852 78.532 44.988 75.088 42.356ZM71.924 30.904H86.512V33.928H71.924V30.904ZM62.376 31.324L64.868 29.784C66.212 31.128 67.78 32.864 68.62 33.984L66.072 35.86C65.288 34.656 63.664 32.724 62.376 31.324ZM61.676 36.252H67.612V38.94H61.676V36.252ZM67.36 48.432C68.872 52.212 72.148 52.66 77.216 52.688C80.212 52.688 84.832 52.492 87.996 52.212C87.548 52.884 87.1 54.396 86.932 55.32C84.02 55.488 80.436 55.572 77.16 55.572C70.664 55.572 67.192 54.704 65.12 49.328L67.36 48.432ZM66.688 43.056H67.5L68.032 43L69.628 43.588C68.704 49.776 66.408 53.92 63.132 56.048C62.712 55.404 61.62 54.256 60.976 53.808C64 51.988 66.016 48.488 66.688 43.56V43.056ZM62.208 46.108V43.7L63.412 43.056H67.64L67.612 45.66H63.916C63.244 45.66 62.432 45.856 62.208 46.108ZM62.208 46.108C62.012 45.408 61.424 43.98 61.116 43.364C61.592 43.252 62.04 43.056 62.572 42.468C63.384 41.684 65.904 38.1 66.828 36.56V36.476L67.696 36.112L69.712 37.036C68.424 38.968 66.016 42.44 64.448 44.26C64.448 44.26 62.208 45.352 62.208 46.108ZM99.812 40.34V45.184H104.768V40.34H99.812ZM96.648 37.4H108.128V48.096H96.648V37.4ZM90.488 30.68H114.512V56.02H110.872V34.096H93.96V56.02H90.488V30.68ZM92.448 51.372H112.944V54.508H92.448V51.372Z" fill="#4527A0"/>
</svg>
