<svg width="223" height="83" viewBox="0 0 223 83" fill="none" xmlns="http://www.w3.org/2000/svg">
<rect x="2" y="2" width="219" height="79" rx="39.5" fill="#4527A0"/>
<rect x="2" y="2" width="219" height="79" rx="39.5" stroke="#4527A0" stroke-width="3"/>
<path d="M50.5 22.75C40.1595 22.75 31.75 31.1595 31.75 41.5C31.75 51.8405 40.1595 60.25 50.5 60.25C60.8405 60.25 69.25 51.8405 69.25 41.5C69.25 31.1595 60.8405 22.75 50.5 22.75ZM50.5 25.25C59.4894 25.25 66.7598 32.5106 66.7598 41.5C66.7598 50.4894 59.4894 57.7598 50.5 57.7598C41.5106 57.7598 34.25 50.4894 34.25 41.5C34.25 32.5106 41.5106 25.25 50.5 25.25ZM50.4829 31.5073C50.1527 31.5131 49.8382 31.6494 49.6081 31.8864C49.378 32.1233 49.251 32.4417 49.2549 32.772V33.8242C47.2366 34.2028 45.5098 35.5025 45.5098 37.7549C45.5098 39.3174 46.2142 40.5811 47.1602 41.3169C48.1062 42.0527 49.1743 42.3789 50.1118 42.6914C51.0493 43.0039 51.8586 43.3027 52.3188 43.6606C52.7791 44.0186 53 44.3198 53 45.2573C53 47.3407 48.0098 47.3407 48.0098 45.2573C48.0135 45.0908 47.9839 44.9253 47.9227 44.7704C47.8615 44.6155 47.7701 44.4744 47.6536 44.3554C47.5372 44.2363 47.3981 44.1417 47.2446 44.0771C47.0911 44.0126 46.9263 43.9793 46.7598 43.9793C46.5932 43.9793 46.4284 44.0126 46.2749 44.0771C46.1214 44.1417 45.9824 44.2363 45.8659 44.3554C45.7495 44.4744 45.658 44.6155 45.5968 44.7704C45.5357 44.9253 45.5061 45.0908 45.5098 45.2573C45.5098 47.5079 47.2381 48.8101 49.2549 49.1904V50.2378C49.2512 50.4043 49.2808 50.5698 49.3419 50.7247C49.4031 50.8796 49.4946 51.0207 49.611 51.1398C49.7275 51.2588 49.8665 51.3534 50.02 51.418C50.1735 51.4826 50.3384 51.5158 50.5049 51.5158C50.6714 51.5158 50.8363 51.4826 50.9897 51.418C51.1432 51.3534 51.2823 51.2588 51.3987 51.1398C51.5152 51.0207 51.6067 50.8796 51.6678 50.7247C51.729 50.5698 51.7586 50.4043 51.7549 50.2378V49.1904C53.772 48.8103 55.5024 47.5082 55.5024 45.2573C55.5024 43.6948 54.7956 42.4311 53.8496 41.6953C52.9036 40.9595 51.8354 40.6309 50.8979 40.3184C49.9604 40.0059 49.1512 39.7095 48.6909 39.3516C48.2307 38.9936 48.0098 38.6924 48.0098 37.7549C48.0098 35.6716 53 35.6716 53 37.7549C53 38.0867 53.1318 38.405 53.3665 38.6396C53.6011 38.8743 53.9194 39.0061 54.2512 39.0061C54.5831 39.0061 54.9013 38.8743 55.136 38.6396C55.3706 38.405 55.5024 38.0867 55.5024 37.7549C55.5024 35.5059 53.7714 34.2075 51.7549 33.8267V32.772C51.7568 32.6047 51.7252 32.4388 51.6619 32.284C51.5986 32.1292 51.5049 31.9887 51.3863 31.8707C51.2677 31.7528 51.1266 31.6599 50.9714 31.5975C50.8163 31.535 50.6501 31.5044 50.4829 31.5073Z" fill="#FAFAFA"/>
<path d="M100.212 32.22L102.732 30.484C104.272 31.8 106.092 33.676 106.932 34.992L104.216 36.896C103.488 35.552 101.724 33.592 100.212 32.22ZM81.872 37.68H107.156V40.872H81.872V37.68ZM81.34 45.604C84.728 45.1 90.048 44.176 94.948 43.28L95.2 46.332C90.664 47.284 85.792 48.264 82.18 48.992L81.34 45.604ZM87.192 33.172H90.58V52.1C90.58 53.92 90.216 54.844 89.068 55.376C87.948 55.908 86.296 56.02 84 56.02C83.86 55.068 83.3 53.556 82.796 52.604C84.392 52.688 86.016 52.688 86.52 52.66C87.024 52.66 87.192 52.52 87.192 52.044V33.172ZM92.932 29.896L95.2 32.752C91.56 33.872 86.772 34.628 82.712 35.076C82.544 34.292 82.124 33.032 81.732 32.276C85.68 31.744 90.048 30.876 92.932 29.896ZM95.676 29.952H99.204C99.008 41.236 101.528 52.716 104.076 52.716C104.664 52.716 104.972 51.344 105.14 48.012C105.84 48.796 106.988 49.58 107.884 49.944C107.352 54.9 106.288 56.132 103.74 56.132C97.944 56.132 95.76 42.524 95.676 29.952ZM103.292 41.796L106.26 43.056C103.348 48.264 98.784 52.436 93.716 55.124C93.212 54.284 92.288 53.164 91.448 52.408C96.236 50.224 100.8 46.416 103.292 41.796ZM109.732 45.66H135.268V48.432H109.732V45.66ZM110.18 30.708H134.68V33.62H110.18V30.708ZM128.044 44.064L131.32 44.876C128.548 53.052 122.528 55.264 110.936 56.076C110.74 55.124 110.208 53.92 109.704 53.164C120.4 52.744 125.804 50.952 128.044 44.064ZM112.924 51.148L115.472 49.02C122.64 50.224 130.284 52.1 134.932 53.584L131.936 55.936C127.736 54.368 120.54 52.492 112.924 51.148ZM117.544 31.856H120.708V41.432H117.544V31.856ZM123.9 31.856H127.064V41.432H123.9V31.856ZM114.604 37.848V40.48H130.424V37.848H114.604ZM111.468 35.216H133.784V43.112H111.468V35.216ZM112.924 51.148C114.772 49.02 117.04 45.744 118.3 43.028L121.66 43.756C120.4 46.388 118.272 49.384 116.844 51.148H112.924ZM152.292 33.312V35.86H158.564V33.312H152.292ZM149.156 30.652H161.84V38.548H149.156V30.652ZM159.264 40.004H162.68V52.576C162.68 54.144 162.372 54.984 161.364 55.516C160.328 55.992 158.9 56.048 156.94 56.048C156.828 55.124 156.408 53.808 155.988 52.968C157.08 53.024 158.396 52.996 158.76 52.996C159.124 52.996 159.264 52.884 159.264 52.548V40.004ZM137.34 43.952C139.916 43.42 143.752 42.496 147.336 41.572L147.756 44.652C144.48 45.548 140.952 46.472 138.208 47.172L137.34 43.952ZM137.676 35.048H147.7V38.184H137.676V35.048ZM141.148 29.728H144.424V52.408C144.424 54.004 144.144 54.844 143.192 55.348C142.24 55.852 140.896 55.964 138.908 55.936C138.796 55.096 138.376 53.752 137.984 52.912C139.076 52.94 140.252 52.94 140.616 52.94C141.008 52.912 141.148 52.8 141.148 52.408V29.728ZM149.968 40.004H161.028V42.86H149.968V40.004ZM148.428 40.004H151.76V44.68C151.76 48.152 151.312 53.108 148.82 56.272C148.232 55.712 146.748 54.732 145.964 54.368C148.204 51.54 148.428 47.508 148.428 44.624V40.004ZM150.948 49.468C153.272 49.048 156.772 48.348 160.16 47.62L160.468 50.308C157.556 51.12 154.504 51.96 152.04 52.604L150.948 49.468ZM151.648 45.996L152.936 43.728C154.896 44.036 157.472 44.764 158.872 45.436L157.528 47.928C156.212 47.256 153.636 46.416 151.648 45.996ZM182.868 39.668H186.032V41.068C186.032 45.1 185.528 51.428 180.348 56.132C179.788 55.376 178.612 54.34 177.8 53.836C182.448 49.804 182.868 44.456 182.868 40.984V39.668ZM185.808 43.056C186.704 47.48 188.58 51.372 191.94 53.136C191.212 53.78 190.176 55.068 189.672 55.964C185.976 53.668 184.184 49.076 183.12 43.532L185.808 43.056ZM165.704 31.968H178.836V34.712H165.704V31.968ZM165.312 44.204H179.144V46.948H165.312V44.204ZM166.376 36.14H178.192V38.856H166.376V36.14ZM166.544 40.172H178.052V42.888H166.544V40.172ZM170.716 29.896H173.88V37.904H170.716V29.896ZM167.104 47.452L169.848 48.124C169.288 50.196 168.364 52.576 167.608 54.088C166.964 53.696 165.704 53.192 165.004 52.94C165.844 51.512 166.628 49.356 167.104 47.452ZM174.664 48.376L177.156 47.424C177.856 48.768 178.668 50.616 179.004 51.736L176.344 52.856C176.064 51.708 175.336 49.804 174.664 48.376ZM181.356 34.796H189.252V37.848H181.356V34.796ZM180.796 29.756L184.072 30.232C183.4 35.328 182.112 40.228 180.152 43.364C179.564 42.804 178.192 41.796 177.436 41.32C179.284 38.66 180.32 34.236 180.796 29.756ZM188.384 34.796H188.832L189.364 34.684L191.66 35.3C191.128 38.072 190.344 41.236 189.616 43.308L186.9 42.496C187.432 40.648 188.048 37.652 188.384 35.3V34.796ZM170.772 45.324H173.908V55.992H170.772V45.324Z" fill="#FAFAFA"/>
</svg>
