<svg width="173" height="83" viewBox="0 0 173 83" fill="none" xmlns="http://www.w3.org/2000/svg">
<rect x="2" y="1.72925" width="169" height="79" rx="39.5" fill="#4527A0"/>
<rect x="2" y="1.72925" width="169" height="79" rx="39.5" stroke="#4527A0" stroke-width="3"/>
<path d="M40.02 40.3212H56.848V43.4012H40.02V40.3212ZM40.776 34.2172H56.148V37.2692H40.776V34.2172ZM46.656 35.8412H49.96V39.5932C49.96 43.1492 48.812 48.1052 41.896 51.5492C41.448 50.8492 40.384 49.7852 39.6 49.1972C46.208 46.3692 46.656 42.2812 46.656 39.5652V35.8412ZM51.584 29.4292L54.972 30.4372C53.908 32.4252 52.704 34.5532 51.752 35.9252L49.064 35.0012C49.96 33.4892 51.024 31.1372 51.584 29.4292ZM41.924 30.4932L44.78 29.4292C45.592 30.7172 46.74 32.5092 47.3 33.6012L44.304 34.8612C43.8 33.7412 42.736 31.8652 41.924 30.4932ZM46.572 44.2692L48.756 42.2532C51.304 44.3532 55.112 47.3772 56.988 49.1972L54.636 51.5772C52.9 49.6732 49.204 46.5092 46.572 44.2692ZM32.348 30.9412L34.868 29.4572C36.128 30.8012 37.612 32.5652 38.368 33.7132L35.736 35.5052C35.036 34.3012 33.524 32.3412 32.348 30.9412ZM31.676 35.9812H37.584V38.6692H31.676V35.9812ZM37.36 48.1612C38.844 51.9412 42.148 52.3892 47.216 52.4172C50.212 52.4172 54.832 52.2492 58.024 51.9412C57.548 52.6132 57.128 54.1252 56.96 55.0212C54.02 55.2172 50.436 55.2732 47.16 55.2732C40.664 55.2732 37.192 54.4332 35.12 49.0572L37.36 48.1612ZM36.24 42.7852H37.248L37.78 42.7292L39.18 43.2892C38.368 49.4212 36.24 53.6212 33.272 55.8332C32.824 55.1892 31.732 54.0412 31.088 53.5932C33.86 51.7172 35.624 48.1892 36.24 43.2892V42.7852ZM32.208 45.8372V43.4292L33.412 42.7852H37.528V45.3892H33.916C33.244 45.3892 32.432 45.5852 32.208 45.8372ZM32.208 45.8372C32.012 45.1372 31.424 43.7092 31.116 43.0932C31.592 42.9812 32.04 42.7852 32.572 42.1972C33.384 41.4132 35.876 37.8292 36.828 36.2892V36.2052L37.668 35.8412L39.712 36.7652C38.424 38.6972 36.016 42.1692 34.448 43.9892C34.448 43.9892 32.208 45.0812 32.208 45.8372ZM70.512 29.4852H74.264V52.5852H70.512V29.4852ZM80.2 43.5132H83.952V55.7212H80.2V43.5132ZM62.336 31.8372H65.892V38.7812H79.108V31.8092H82.832V42.0572H62.336V31.8372ZM60.852 43.5412H64.632V50.8492H81.936V54.2092H60.852V43.5412ZM94.48 49.0292H97.756V51.9412C97.756 52.6692 97.98 52.7812 99.268 52.7812C99.856 52.7812 102.348 52.7812 103.132 52.7812C104.168 52.7812 104.336 52.4732 104.476 50.4572C105.148 50.9052 106.464 51.3532 107.304 51.5212C106.968 54.6852 106.072 55.4692 103.44 55.4692C102.684 55.4692 99.604 55.4692 98.904 55.4692C95.348 55.4692 94.48 54.6572 94.48 51.9692V49.0292ZM97.532 48.9172L99.436 47.0412C100.976 47.6572 102.964 48.7772 104 49.6172L101.928 51.6612C101.032 50.8492 99.072 49.6452 97.532 48.9172ZM106.884 49.5332L109.572 48.3572C110.916 49.8692 112.4 51.9132 112.988 53.3692L110.104 54.6852C109.6 53.2572 108.2 51.1292 106.884 49.5332ZM91.064 48.6092L93.864 49.8412C92.996 51.6332 91.82 53.7052 90.364 55.0492L87.592 53.4252C89.02 52.1932 90.308 50.2892 91.064 48.6092ZM89.72 31.0252H111.196V33.6292H89.72V31.0252ZM88.376 35.5612H112.708V38.1652H88.376V35.5612ZM93.668 34.0492L96.748 33.4332C97.168 34.1892 97.56 35.2252 97.7 35.9252L94.508 36.6532C94.396 35.9532 94.032 34.8612 93.668 34.0492ZM104.196 33.3772L107.668 34.0212C107.052 35.1132 106.548 36.0092 106.1 36.7092L103.16 36.0372C103.524 35.2532 103.972 34.1612 104.196 33.3772ZM94.704 44.4652V45.6692H106.324V44.4652H94.704ZM94.704 41.3012V42.5052H106.324V41.3012H94.704ZM91.54 39.2012H109.656V47.7692H91.54V39.2012ZM98.344 29.7372L101.648 29.1212C102.152 30.0452 102.628 31.3332 102.796 32.2012L99.324 32.9012C99.212 32.0612 98.792 30.7172 98.344 29.7372ZM122.62 37.7172V39.4532H134.38V37.7172H122.62ZM122.62 42.1972V43.9332H134.38V42.1972H122.62ZM122.62 33.2652V35.0012H134.38V33.2652H122.62ZM119.372 30.3252H137.796V46.8732H119.372V30.3252ZM129.788 44.6052H133.204V51.3252C133.204 52.2212 133.4 52.3612 134.408 52.3612C134.884 52.3612 136.76 52.3612 137.348 52.3612C138.328 52.3612 138.496 51.8852 138.636 48.5812C139.308 49.1412 140.792 49.7012 141.716 49.9252C141.352 54.3772 140.456 55.5252 137.656 55.5252C136.956 55.5252 134.604 55.5252 133.96 55.5252C130.6 55.5252 129.788 54.5172 129.788 51.3252V44.6052ZM122.928 45.7532H126.54C126.064 50.8492 124.748 54.1532 117.188 55.8612C116.908 54.9652 116.012 53.5932 115.312 52.8652C121.808 51.6612 122.564 49.5052 122.928 45.7532Z" fill="#FAFAFA"/>
</svg>
